<svg xmlns="http://www.w3.org/2000/svg" width="212.563" height="56" viewBox="0 0 212.563 56">
  <metadata><?xpacket begin="﻿" id="W5M0MpCehiHzreSzNTczkc9d"?>
<x:xmpmeta xmlns:x="adobe:ns:meta/" x:xmptk="Adobe XMP Core 5.6-c138 79.159824, 2016/09/14-01:09:01        ">
   <rdf:RDF xmlns:rdf="http://www.w3.org/1999/02/22-rdf-syntax-ns#">
      <rdf:Description rdf:about=""/>
   </rdf:RDF>
</x:xmpmeta>
                                                                                                    
                                                                                                    
                                                                                                    
                                                                                                    
                                                                                                    
                                                                                                    
                                                                                                    
                                                                                                    
                                                                                                    
                                                                                                    
                                                                                                    
                                                                                                    
                                                                                                    
                                                                                                    
                                                                                                    
                                                                                                    
                                                                                                    
                                                                                                    
                                                                                                    
                                                                                                    
                           
<?xpacket end="w"?></metadata>
<defs>
    <style>
      .cls-1 {
        fill: #fff;
        fill-rule: evenodd;
      }
    </style>
  </defs>
  <path id="appstore" class="cls-1" d="M2.1,19.348C-2.114,26.67.568,37.782,5.232,44.519c2.328,3.368,4.685,6.392,7.914,6.392,0.061,0,.122,0,0.184,0A9.768,9.768,0,0,0,17,49.928,10.054,10.054,0,0,1,21.353,48.9a9.456,9.456,0,0,1,4.141,1,8.772,8.772,0,0,0,3.967.952c3.637-.068,5.869-3.331,7.839-6.209A27.525,27.525,0,0,0,40.736,37.6l0.014-.044a0.409,0.409,0,0,0-.217-0.5L40.5,37.04a10.427,10.427,0,0,1-6.317-9.55,10.735,10.735,0,0,1,5.07-8.974l0.04-.025a0.409,0.409,0,0,0,.116-0.575,11.8,11.8,0,0,0-9.281-5.042c-0.264-.026-0.536-0.04-0.81-0.04A16.173,16.173,0,0,0,23.5,14.29a9.362,9.362,0,0,1-2.791.834,9.125,9.125,0,0,1-2.886-.844,13.981,13.981,0,0,0-5.087-1.293H12.6A12.474,12.474,0,0,0,2.1,19.348ZM30.135,1a11.39,11.39,0,0,0-7.52,3.859,10.68,10.68,0,0,0-2.7,7.917,0.409,0.409,0,0,0,.374.354c0.174,0.014.352,0.02,0.529,0.021a9.634,9.634,0,0,0,7.1-3.642,11.26,11.26,0,0,0,2.644-8.144A0.412,0.412,0,0,0,30.135,1ZM65.573,3.214H63.128L58.667,14.667H61.12l0.945-2.6h4.578l1,2.6h2.516Zm-2.8,6.922,1.547-4.25,1.578,4.25H62.776Zm14.452,4.531,3.3-8.3H78.267L76.689,10.6q-0.125.351-.234,0.7-0.047.172-.227,0.711L75.775,10.6,74.212,6.37h-2.3l3.344,8.3h1.977ZM85.64,8.092a1.571,1.571,0,0,1,.914-0.23,1.872,1.872,0,0,1,1.18.27,1.137,1.137,0,0,1,.313.9V9.253a11.946,11.946,0,0,1-2.133.539,7.358,7.358,0,0,0-1.746.512,2.195,2.195,0,0,0-.941.844A2.359,2.359,0,0,0,82.89,12.4a2.311,2.311,0,0,0,.738,1.758,2.827,2.827,0,0,0,2.02.7,3.446,3.446,0,0,0,1.367-.274,3.957,3.957,0,0,0,1.2-.82q0.023,0.063.078,0.258,0.125,0.43.211,0.649h2.172a4.7,4.7,0,0,1-.395-1.113,8.9,8.9,0,0,1-.105-1.613L90.2,9.378a4.527,4.527,0,0,0-.293-1.965A2.183,2.183,0,0,0,88.9,6.53a5.255,5.255,0,0,0-2.187-.348,4.232,4.232,0,0,0-2.437.578,3.1,3.1,0,0,0-1.156,1.781L85.109,8.9A1.6,1.6,0,0,1,85.64,8.092Zm2.406,3.027a4.335,4.335,0,0,1-.086,1.07,1.375,1.375,0,0,1-.523.727,1.9,1.9,0,0,1-1.133.391,1.2,1.2,0,0,1-.875-0.336,1.076,1.076,0,0,1-.344-0.8,0.916,0.916,0,0,1,.43-0.774,4.026,4.026,0,0,1,1.2-.383,13.7,13.7,0,0,0,1.336-.336V11.12Zm8.116-5.875V3.214h-2.2V5.245h2.2Zm0,9.422V6.37h-2.2v8.3h2.2Zm6.045,0V3.214h-2.195V14.667h2.195Zm6.022-6.574a1.573,1.573,0,0,1,.914-0.23,1.873,1.873,0,0,1,1.18.27,1.138,1.138,0,0,1,.312.9V9.253a11.913,11.913,0,0,1-2.132.539,7.366,7.366,0,0,0-1.747.512,2.2,2.2,0,0,0-.941.844,2.359,2.359,0,0,0-.336,1.254,2.312,2.312,0,0,0,.738,1.758,2.83,2.83,0,0,0,2.02.7,3.446,3.446,0,0,0,1.367-.274,3.956,3.956,0,0,0,1.2-.82q0.024,0.063.078,0.258,0.126,0.43.211,0.649h2.172a4.678,4.678,0,0,1-.394-1.113,8.822,8.822,0,0,1-.106-1.613l0.024-2.562a4.532,4.532,0,0,0-.293-1.965,2.188,2.188,0,0,0-1.012-.883,5.254,5.254,0,0,0-2.188-.348,4.23,4.23,0,0,0-2.437.578,3.1,3.1,0,0,0-1.156,1.781L107.7,8.9A1.6,1.6,0,0,1,108.229,8.092Zm2.406,3.027a4.3,4.3,0,0,1-.086,1.07,1.37,1.37,0,0,1-.523.727,1.9,1.9,0,0,1-1.133.391,1.2,1.2,0,0,1-.875-0.336,1.077,1.077,0,0,1-.344-0.8,0.917,0.917,0,0,1,.43-0.774,4.034,4.034,0,0,1,1.2-.383,13.642,13.642,0,0,0,1.336-.336V11.12Zm7.866,3.547V13.448a3.356,3.356,0,0,0,1.191,1.051,3.041,3.041,0,0,0,1.4.356,3.158,3.158,0,0,0,2.457-1.149,4.8,4.8,0,0,0,1.012-3.273,4.542,4.542,0,0,0-.993-3.152,3.233,3.233,0,0,0-2.507-1.1,3.107,3.107,0,0,0-2.407,1.156V3.214h-2.195V14.667H118.5Zm0.664-6.191a1.654,1.654,0,0,1,1.313-.613,1.632,1.632,0,0,1,1.32.629,3.239,3.239,0,0,1,.516,2.051A3.057,3.057,0,0,1,121.8,12.5a1.553,1.553,0,0,1-1.238.621,1.736,1.736,0,0,1-1.516-.875,3.527,3.527,0,0,1-.406-1.906A2.816,2.816,0,0,1,119.165,8.475Zm10.959,6.191V3.214h-2.195V14.667h2.195Zm8.124-1.734a1.344,1.344,0,0,1-.867.281,1.662,1.662,0,0,1-1.266-.543,2.216,2.216,0,0,1-.531-1.52h5.5A5.409,5.409,0,0,0,140.06,7.4a3.681,3.681,0,0,0-2.921-1.223,3.552,3.552,0,0,0-2.727,1.168,4.58,4.58,0,0,0-1.078,3.23,4.749,4.749,0,0,0,.82,2.859,3.713,3.713,0,0,0,3.2,1.414,3.914,3.914,0,0,0,2.278-.629,3.6,3.6,0,0,0,1.332-1.832l-2.188-.367A1.74,1.74,0,0,1,138.248,12.932Zm-2.625-3.125a2.024,2.024,0,0,1,.461-1.422,1.584,1.584,0,0,1,2.328-.027,2.113,2.113,0,0,1,.492,1.449h-3.281Zm14.926,3.02a3.542,3.542,0,0,0,1.575,1.512,4.815,4.815,0,0,0,2.175.516,4.106,4.106,0,0,0,3.059-1.238,4.274,4.274,0,0,0,1.215-3.121,4.225,4.225,0,0,0-1.2-3.09,4.143,4.143,0,0,0-3.086-1.223,4.532,4.532,0,0,0-2.207.539,3.7,3.7,0,0,0-1.528,1.562,4.493,4.493,0,0,0-.539,2.117A5.041,5.041,0,0,0,150.549,12.827Zm2.3-4.2a1.916,1.916,0,0,1,2.887,0,2.736,2.736,0,0,1,.582,1.875,2.787,2.787,0,0,1-.582,1.906,1.916,1.916,0,0,1-2.887,0,2.752,2.752,0,0,1-.586-1.891A2.752,2.752,0,0,1,152.846,8.628ZM169.439,9.51a6.829,6.829,0,0,0-.122-1.477,2.419,2.419,0,0,0-.429-0.922,2.228,2.228,0,0,0-.91-0.668,3.4,3.4,0,0,0-4.063,1.145V6.37h-2.039v8.3h2.195V10.909A7.157,7.157,0,0,1,164.239,9a1.575,1.575,0,0,1,.621-0.828,1.763,1.763,0,0,1,1.024-.313,1.308,1.308,0,0,1,.762.219,1.221,1.221,0,0,1,.457.613,6.588,6.588,0,0,1,.14,1.738v4.234h2.2V9.51ZM181.615,6.37V3.44l-2.2,1.281V6.37H178.4V8.12h1.008v3.617a10.638,10.638,0,0,0,.07,1.547,2.037,2.037,0,0,0,.309.855,1.557,1.557,0,0,0,.7.516,2.752,2.752,0,0,0,1.07.2,4.368,4.368,0,0,0,1.735-.328l-0.188-1.7a2.834,2.834,0,0,1-.883.211,0.621,0.621,0,0,1-.371-0.109,0.486,0.486,0,0,1-.2-0.277,8.253,8.253,0,0,1-.043-1.184V8.12h1.5V6.37h-1.5Zm4.616-3.156V14.667h2.195V10.51a4.779,4.779,0,0,1,.2-1.582,1.536,1.536,0,0,1,.629-0.8,1.822,1.822,0,0,1,.977-0.266,1.422,1.422,0,0,1,.793.207,1.084,1.084,0,0,1,.441.559,6.506,6.506,0,0,1,.125,1.656v4.383h2.195V9.8a8.626,8.626,0,0,0-.113-1.648,2.594,2.594,0,0,0-.422-0.969,2.231,2.231,0,0,0-.918-0.719,3.289,3.289,0,0,0-3.906.961V3.214h-2.195Zm15.654,9.719a1.342,1.342,0,0,1-.867.281,1.66,1.66,0,0,1-1.265-.543,2.221,2.221,0,0,1-.532-1.52h5.5A5.409,5.409,0,0,0,203.7,7.4a3.684,3.684,0,0,0-2.922-1.223,3.552,3.552,0,0,0-2.727,1.168,4.585,4.585,0,0,0-1.078,3.23,4.75,4.75,0,0,0,.821,2.859,3.71,3.71,0,0,0,3.2,1.414,3.913,3.913,0,0,0,2.277-.629,3.585,3.585,0,0,0,1.332-1.832l-2.187-.367A1.734,1.734,0,0,1,201.885,12.932ZM199.26,9.807a2.029,2.029,0,0,1,.461-1.422,1.527,1.527,0,0,1,1.188-.523,1.508,1.508,0,0,1,1.14.5,2.113,2.113,0,0,1,.493,1.449H199.26ZM70.535,24.195H65.972l-9.98,26.472H60.5l2.358-6.887h10.6l2.478,6.887h4.512ZM63.989,40.379L67.664,29.9a10.053,10.053,0,0,0,.427-1.965h0.12a11.388,11.388,0,0,0,.41,2l3.691,10.442H63.989ZM86.361,48.12a6.11,6.11,0,0,0,5.486,2.991,7.7,7.7,0,0,0,6.272-2.854,11.592,11.592,0,0,0,2.342-7.588,10.447,10.447,0,0,0-2.068-6.827A7.523,7.523,0,0,0,86.361,34.91H86.276V31.765H82.26v25.6h4.016V48.12h0.086Zm-0.12-7.673A6.213,6.213,0,0,1,87.7,36.209a4.771,4.771,0,0,1,3.768-1.675,4.341,4.341,0,0,1,3.589,1.6,7.059,7.059,0,0,1,1.282,4.52,8.97,8.97,0,0,1-1.384,5.323,4.523,4.523,0,0,1-3.9,1.923,4.475,4.475,0,0,1-3.452-1.5,5.278,5.278,0,0,1-1.367-3.7V40.447Zm21.363,7.673a6.112,6.112,0,0,0,5.486,2.991,7.7,7.7,0,0,0,6.272-2.854,11.591,11.591,0,0,0,2.342-7.588,10.449,10.449,0,0,0-2.068-6.827,6.944,6.944,0,0,0-5.674-2.521,7.014,7.014,0,0,0-6.358,3.589H107.52V31.765H103.5v25.6h4.016V48.12h0.085Zm-0.119-7.673a6.214,6.214,0,0,1,1.461-4.238,4.77,4.77,0,0,1,3.768-1.675,4.341,4.341,0,0,1,3.589,1.6,7.056,7.056,0,0,1,1.282,4.52,8.976,8.976,0,0,1-1.384,5.323,4.523,4.523,0,0,1-3.9,1.923,4.475,4.475,0,0,1-3.452-1.5,5.276,5.276,0,0,1-1.367-3.7V40.447Zm23.86,9.16a9.832,9.832,0,0,0,3.179,1.094,19.467,19.467,0,0,0,3.759.41,12,12,0,0,0,7.2-1.9,6.374,6.374,0,0,0,2.6-5.486,6.58,6.58,0,0,0-1.5-4.264,15.552,15.552,0,0,0-5.452-3.7,20.578,20.578,0,0,1-4.434-2.563,3.157,3.157,0,0,1-1.051-2.444,2.932,2.932,0,0,1,1.435-2.581,6.8,6.8,0,0,1,3.777-.94,10.467,10.467,0,0,1,6.1,1.692v-4.2a14.447,14.447,0,0,0-6.016-.974,11.44,11.44,0,0,0-6.9,1.965,6.3,6.3,0,0,0-2.7,5.383,6.4,6.4,0,0,0,1.418,4.136,14.393,14.393,0,0,0,4.991,3.469q2.9,1.384,3.888,2.008a5.369,5.369,0,0,1,1.563,1.461,3.224,3.224,0,0,1,.581,1.88q0,3.606-5.263,3.606a10.992,10.992,0,0,1-7.161-2.478v4.426Zm29.515-2.341a3.3,3.3,0,0,1-1.948.615,2.41,2.41,0,0,1-2.008-.786,4.116,4.116,0,0,1-.624-2.546v-9.6h4.58V31.765h-4.58v-5.64l-4,1.213v4.426h-3.2v3.179h3.2V45.249q0,5.845,5.384,5.845a6.55,6.55,0,0,0,3.195-.632v-3.2Zm3.753,1.2a9.247,9.247,0,0,0,6.93,2.649,9.4,9.4,0,0,0,7.075-2.734,10.041,10.041,0,0,0,2.649-7.3,9.88,9.88,0,0,0-2.512-7.144,9.035,9.035,0,0,0-6.836-2.615,9.7,9.7,0,0,0-7.238,2.7,10.047,10.047,0,0,0-2.657,7.366A9.686,9.686,0,0,0,164.614,48.462ZM167.6,36.345a5.056,5.056,0,0,1,4.136-1.811,4.947,4.947,0,0,1,4.05,1.7,7.612,7.612,0,0,1,1.4,4.948q0,6.716-5.452,6.716a5.16,5.16,0,0,1-4.11-1.743,7.169,7.169,0,0,1-1.513-4.853A7.588,7.588,0,0,1,167.6,36.345Zm27.465-4.666a4.746,4.746,0,0,0-1.675-.239q-3.555,0-4.956,4.085h-0.085v-3.76h-4.016v18.9h4.016V41.25a7.7,7.7,0,0,1,1.205-4.529,3.694,3.694,0,0,1,3.153-1.709,4.255,4.255,0,0,1,2.358.581V31.68Zm17.5,8.716a9.733,9.733,0,0,0-2.127-6.657,7.517,7.517,0,0,0-5.956-2.418,8.252,8.252,0,0,0-6.4,2.837,10.366,10.366,0,0,0-2.555,7.212,10.165,10.165,0,0,0,2.375,7.178,8.528,8.528,0,0,0,6.58,2.563,11.949,11.949,0,0,0,6.648-1.658V46.138a9.5,9.5,0,0,1-5.725,1.88q-5.572,0-5.828-5.725h12.988V40.4ZM199.591,39.37a6.318,6.318,0,0,1,1.675-3.649,4.31,4.31,0,0,1,3.179-1.376,3.841,3.841,0,0,1,3.11,1.3,5.7,5.7,0,0,1,1.111,3.726h-9.075Z" transform="translate(0 -1)"/>
</svg>
