<svg xmlns="http://www.w3.org/2000/svg" width="233.406" height="53" viewBox="0 0 233.406 53">
  <metadata><?xpacket begin="﻿" id="W5M0MpCehiHzreSzNTczkc9d"?>
<x:xmpmeta xmlns:x="adobe:ns:meta/" x:xmptk="Adobe XMP Core 5.6-c138 79.159824, 2016/09/14-01:09:01        ">
   <rdf:RDF xmlns:rdf="http://www.w3.org/1999/02/22-rdf-syntax-ns#">
      <rdf:Description rdf:about=""/>
   </rdf:RDF>
</x:xmpmeta>
                                                                                                    
                                                                                                    
                                                                                                    
                                                                                                    
                                                                                                    
                                                                                                    
                                                                                                    
                                                                                                    
                                                                                                    
                                                                                                    
                                                                                                    
                                                                                                    
                                                                                                    
                                                                                                    
                                                                                                    
                                                                                                    
                                                                                                    
                                                                                                    
                                                                                                    
                                                                                                    
                           
<?xpacket end="w"?></metadata>
<defs>
    <style>
      .cls-1 {
        fill: #fff;
        fill-rule: evenodd;
      }
    </style>
  </defs>
  <path id="googleplay" class="cls-1" d="M77.52,28.1v4.465a10.384,10.384,0,0,1-2.977,1.693,10.643,10.643,0,0,1-4.023.793,9.949,9.949,0,0,1-4.481-1.047A7.065,7.065,0,0,1,62.825,30.8a11.707,11.707,0,0,1-1.1-5.365,12.545,12.545,0,0,1,.916-4.825,8.307,8.307,0,0,1,1.513-2.372,7.019,7.019,0,0,1,2.56-1.742,9.728,9.728,0,0,1,3.762-.662,8.4,8.4,0,0,1,3.3.63,5.506,5.506,0,0,1,2.29,1.677,8.864,8.864,0,0,1,1.341,2.879l2.862-.785a10.418,10.418,0,0,0-1.815-3.925,7.8,7.8,0,0,0-3.3-2.347,12.544,12.544,0,0,0-4.7-.842,13.2,13.2,0,0,0-6.33,1.472A9.735,9.735,0,0,0,59.913,19.1a14.838,14.838,0,0,0-1.464,6.534,13.775,13.775,0,0,0,1.472,6.4A10,10,0,0,0,64.28,36.4a13.615,13.615,0,0,0,6.42,1.513,14.314,14.314,0,0,0,5.1-.941,17.935,17.935,0,0,0,4.825-2.8v-8.9l-10.157.016V28.1H77.52Zm8.562,7.458a7.807,7.807,0,0,0,5.9,2.339,8.525,8.525,0,0,0,4.2-1.063A7.119,7.119,0,0,0,99.1,33.853a11.49,11.49,0,0,0,1.006-5.275,8.93,8.93,0,0,0-2.273-6.485,7.794,7.794,0,0,0-5.855-2.347,8.083,8.083,0,0,0-5.463,1.93Q83.833,24,83.833,28.823,83.833,33.223,86.082,35.562Zm2.233-11.727a4.853,4.853,0,0,1,7.3.008,7.178,7.178,0,0,1,1.464,4.882,7.573,7.573,0,0,1-1.456,5.087,4.847,4.847,0,0,1-7.311.008,7.4,7.4,0,0,1-1.456-5A7.364,7.364,0,0,1,88.315,23.835Zm16.4,11.727a7.809,7.809,0,0,0,5.9,2.339,8.527,8.527,0,0,0,4.195-1.063,7.123,7.123,0,0,0,2.928-2.985,11.5,11.5,0,0,0,1.005-5.275,8.932,8.932,0,0,0-2.273-6.485,7.794,7.794,0,0,0-5.855-2.347,8.082,8.082,0,0,0-5.463,1.93q-2.683,2.323-2.682,7.147Q102.463,33.223,104.711,35.562Zm2.233-11.727a4.854,4.854,0,0,1,7.3.008,7.181,7.181,0,0,1,1.464,4.882,7.576,7.576,0,0,1-1.456,5.087,4.847,4.847,0,0,1-7.311.008,7.4,7.4,0,0,1-1.456-5A7.362,7.362,0,0,1,106.944,23.835ZM123.5,43.159a8.312,8.312,0,0,0,5.021,1.4,9.068,9.068,0,0,0,4.408-.981,6.043,6.043,0,0,0,2.617-2.674,14.252,14.252,0,0,0,.826-5.749V20.139h-2.715v2.093a6.229,6.229,0,0,0-5.071-2.486,7.044,7.044,0,0,0-4.015,1.145,7.2,7.2,0,0,0-2.609,3.247,11.55,11.55,0,0,0-.9,4.588,9.948,9.948,0,0,0,1.963,6.2,6.553,6.553,0,0,0,5.544,2.584,6.056,6.056,0,0,0,4.809-2.274,18.837,18.837,0,0,1-.213,3.778,4.025,4.025,0,0,1-1.5,2.29,5.254,5.254,0,0,1-3.156.818,4.9,4.9,0,0,1-2.993-.818,2.725,2.725,0,0,1-1-1.93l-2.862-.425A4.727,4.727,0,0,0,123.5,43.159Zm1.963-19.382a4.248,4.248,0,0,1,3.336-1.595,4.375,4.375,0,0,1,3.41,1.619,7.124,7.124,0,0,1,1.415,4.809,7.289,7.289,0,0,1-1.374,4.9,4.478,4.478,0,0,1-6.8-.008q-1.357-1.57-1.357-4.988A7.081,7.081,0,0,1,125.459,23.778ZM143.7,37.508V13.531h-2.944V37.508H143.7Zm14.638-2.879a4.5,4.5,0,0,1-2.764.85,4.82,4.82,0,0,1-3.631-1.521,6.677,6.677,0,0,1-1.619-4.383h12.954q0.016-.523.016-0.785a9.423,9.423,0,0,0-2.208-6.673,7.426,7.426,0,0,0-5.692-2.372,7.64,7.64,0,0,0-5.855,2.421,9.6,9.6,0,0,0-2.257,6.8,9.168,9.168,0,0,0,2.233,6.583,9.031,9.031,0,0,0,11.015.875,7.421,7.421,0,0,0,2.666-4.138l-3.042-.376A5.64,5.64,0,0,1,158.333,34.63Zm-6.321-11.106a4.676,4.676,0,0,1,3.41-1.358,4.51,4.51,0,0,1,3.647,1.7,5.883,5.883,0,0,1,1.113,3.288h-9.7A5.37,5.37,0,0,1,152.012,23.524Zm27.126,20.641V35.709a6,6,0,0,0,1.922,1.57,5.538,5.538,0,0,0,2.641.621,7.137,7.137,0,0,0,3.835-1.137,7.213,7.213,0,0,0,2.781-3.271,11.609,11.609,0,0,0,.957-4.8,11.792,11.792,0,0,0-.867-4.571,7.028,7.028,0,0,0-2.568-3.23,6.866,6.866,0,0,0-3.925-1.145,5.887,5.887,0,0,0-2.895.662,6.608,6.608,0,0,0-2.143,1.987V20.139h-2.682V44.165h2.944Zm1.169-20.355a4.241,4.241,0,0,1,3.329-1.758A4.114,4.114,0,0,1,186.9,23.7a7.677,7.677,0,0,1,1.365,4.972q0,3.484-1.4,5.144a4.256,4.256,0,0,1-3.361,1.66,4.163,4.163,0,0,1-3.288-1.6,7.555,7.555,0,0,1-1.357-4.956A7.867,7.867,0,0,1,180.307,23.81Zm17.4,13.7V13.531h-2.945V37.508H197.7Zm16.486,0h3.075a6.533,6.533,0,0,1-.744-2.085,41.541,41.541,0,0,1-.188-5.193V26.3a16.451,16.451,0,0,0-.148-2.715,4.629,4.629,0,0,0-.916-2,4.762,4.762,0,0,0-2.044-1.317,10.439,10.439,0,0,0-3.615-.523,11.594,11.594,0,0,0-3.941.613,5.667,5.667,0,0,0-2.6,1.75,7.134,7.134,0,0,0-1.292,2.985l2.879,0.393a4.449,4.449,0,0,1,1.463-2.576,5.2,5.2,0,0,1,3.067-.728,4.928,4.928,0,0,1,3.353,1,3.251,3.251,0,0,1,.834,2.535q0,0.164-.016.769A26.9,26.9,0,0,1,208.1,27.5a21.09,21.09,0,0,0-2.617.442,7.16,7.16,0,0,0-2.118.965,4.806,4.806,0,0,0-1.521,1.693,4.743,4.743,0,0,0-.581,2.331A4.615,4.615,0,0,0,202.8,36.5a6.316,6.316,0,0,0,4.4,1.4,9.1,9.1,0,0,0,3.247-.572,10.961,10.961,0,0,0,3.148-1.963,6.243,6.243,0,0,0,.589,2.143h0Zm-0.834-7.638a7.115,7.115,0,0,1-.474,2.944,4.588,4.588,0,0,1-1.947,2.036,6.07,6.07,0,0,1-3.026.744,3.834,3.834,0,0,1-2.608-.785,2.6,2.6,0,0,1-.483-3.361,2.567,2.567,0,0,1,1.161-.957,11.141,11.141,0,0,1,2.568-.589,21.592,21.592,0,0,0,4.809-1.112V29.87Zm9.306,14.687a4.251,4.251,0,0,0,2.421-.679,5.812,5.812,0,0,0,1.8-2.134,34.638,34.638,0,0,0,1.652-3.942l6.608-17.664H232.2l-3.713,10.124a39.335,39.335,0,0,0-1.21,3.958q-0.556-2.11-1.26-4.024L222.4,20.139h-3.173l6.591,17.4q-0.18.474-.262,0.72a14.466,14.466,0,0,1-.9,2.192,2.682,2.682,0,0,1-.965.916,3.235,3.235,0,0,1-1.57.327,6.567,6.567,0,0,1-1.685-.262l0.327,2.764a5.9,5.9,0,0,0,1.9.36h0Zm-174.731-16L37.054,34.845a0.878,0.878,0,0,1-.181.066L26.358,40.952,3.079,52.9a1.273,1.273,0,0,1-.263.074,0.77,0.77,0,0,1-.293.009,0.885,0.885,0,0,1-.35-0.116,0.814,0.814,0,0,1-.443-0.775V0.9A0.943,0.943,0,0,1,2.18.089,0.674,0.674,0,0,1,2.63,0a0.811,0.811,0,0,1,.449.09L26.358,13.021,36.59,18.95H36.6a0.614,0.614,0,0,1,.449.269h0a0.629,0.629,0,0,1,.209.121l10.666,6.166a1.738,1.738,0,0,1,.9,1.527A1.852,1.852,0,0,1,47.929,28.558ZM3.528,50.023l24.7-23.07L3.528,3.091V50.023ZM35.166,33.857L32.03,30.674,29.589,28.2,18.763,38.258,8.031,48.267l17.428-8.841ZM25.459,14.548L8.188,5.03,24.56,20.844l5.029,4.837,5.527-5.593Zm11.3,6.5-5.822,5.892,5.855,5.926L47.03,26.942Z" transform="translate(-1.719)"/>
</svg>
