<svg xmlns="http://www.w3.org/2000/svg" width="104" height="38" viewBox="0 0 104 38">
  <metadata><?xpacket begin="﻿" id="W5M0MpCehiHzreSzNTczkc9d"?>
<x:xmpmeta xmlns:x="adobe:ns:meta/" x:xmptk="Adobe XMP Core 5.6-c138 79.159824, 2016/09/14-01:09:01        ">
   <rdf:RDF xmlns:rdf="http://www.w3.org/1999/02/22-rdf-syntax-ns#">
      <rdf:Description rdf:about=""/>
   </rdf:RDF>
</x:xmpmeta>
                                                                                                    
                                                                                                    
                                                                                                    
                                                                                                    
                                                                                                    
                                                                                                    
                                                                                                    
                                                                                                    
                                                                                                    
                                                                                                    
                                                                                                    
                                                                                                    
                                                                                                    
                                                                                                    
                                                                                                    
                                                                                                    
                                                                                                    
                                                                                                    
                                                                                                    
                                                                                                    
                           
<?xpacket end="w"?></metadata>
<defs>
    <style>
      .cls-1 {
        fill: #fff;
        fill-rule: evenodd;
      }
    </style>
  </defs>
  <path id="logo" class="cls-1" d="M501.45,3712.92c-1.228,2.36-3.32,6.09-10.187,9.27a34.53,34.53,0,0,1-14.736,2.68l1.5-.13c12.371-1.41,14.645-9.87,14.645-9.87l6-17.96h-7.5l1.091-5.81H509S502.36,3710.19,501.45,3712.92Zm-23.877,4.45,3.821-21.18h-3.457l0.955-5.14h9.915l-4.73,26.32h-6.5Zm-4.138-13.27-4.685.04s-0.7,3.87-1.046,6.23,3.093,2,4,2a0.857,0.857,0,0,1,.91,1.23,26.04,26.04,0,0,1-1.546,3.82s-2.661,0-3.73-.05c-7.276-.18-5.639-6.55-5.639-6.55l3.183-17.68h5.822l-1.046,5.87h4.684Zm-10.688-8.1c-4.616-.47-4.412,2.96-4.412,2.96l3.866,0.05-0.955,5.04-3.911.05-2.411,13.23-5.776-.05,3.457-19.09a9.389,9.389,0,0,1,1.774-4.09c2.66-3.78,8.572-3.07,9.186-3a0.847,0.847,0,0,1,.774,1A32.083,32.083,0,0,1,462.747,3696Zm-18.874,2.55c-3.465-1.2-9.415,1.05-11.143,6.41-2.41,8.23,4,9.41,5.276,9.87a7.423,7.423,0,0,1-8.1-1.32c-2.183-2.05-1.864-7.28-1.182-9.23s4.684-9.55,13.416-8.55c10.1,1.27,7.368,10.64,7.368,10.64C448.921,3702.55,448.193,3700.05,443.873,3698.55Zm-25.014-1.41c-2.684.32-1.5,1.96-1.5,1.96s6.14,4.72,7.458,5.86,2.411,3.36.91,6.82c-2.547,5.82-8.823,5.59-8.823,5.59s-8.869.09-10.551,0.05-1.319-1.23-1.319-1.23l1.682-4.68h9.733a5.416,5.416,0,0,0,2.593-.59c1.227-.82-0.137-2.14-0.137-2.14s-4.821-3.91-6.094-5-3.047-2.5-2.32-6c1.592-7.14,9.278-6.73,9.278-6.73s7.777,0,8.641.05a1.2,1.2,0,0,1,1.092.81l-1.819,5.09S421.587,3696.91,418.859,3697.14Zm29.2,5.91,0.455,1.36a0.836,0.836,0,0,1-.228.37l-0.909.86a0.256,0.256,0,0,1-.228-0.18c-0.114-.2-0.409-0.91-0.409-0.91s-0.068-.09.273-0.45,0.818-.91.818-0.91A0.206,0.206,0,0,1,448.057,3703.05Zm-0.228-.59c-0.136.27-1.228,1.55-1.228,1.55l-0.773-1.28c0.091-.25,1-1.54,1-1.54A12.3,12.3,0,0,1,447.829,3702.46Zm-1.591,2-0.865,1.09-0.545-1.18,0.909-1.32Zm-2.547,1.73,0.909-1.28,0.364,1.19-0.818,1.09Zm3.32-.23-1.274,1.18-0.318-1,1.137-1.27Zm-2.82,1.59,1-1,0.272,1.05-1.091,1.04Zm0.136,1.68,4.23-4.09a11.466,11.466,0,0,1-5.185,10.73c-7.1,4.55-12.279.82-13.28-.77C442.053,3719.42,444.327,3709.23,444.327,3709.23Zm9.961,8.78c0.727,1,10.824,6.32,19.283,7.5,15.054,2.82,25.878-8.32,25.878-8.32-6.412,8.32-14.6,10-21.6,11.32-14.281,2.41-33.109-4.73-37.612-6.46A66.66,66.66,0,0,0,454.288,3718.01Z" transform="translate(-405 -3691)"/>
</svg>
